<?xml version="1.0" encoding="UTF-8" standalone="no"?>
<!-- Created with Inkscape (http://www.inkscape.org/) -->

<svg
   version="1.1"
   id="svg2"
   width="2666.6667"
   height="2666.6667"
   viewBox="600 600 1450 1450"
   sodipodi:docname="shrine-logo.eps"
   xmlns:inkscape="http://www.inkscape.org/namespaces/inkscape"
   xmlns:sodipodi="http://sodipodi.sourceforge.net/DTD/sodipodi-0.dtd"
   xmlns="http://www.w3.org/2000/svg"
   xmlns:svg="http://www.w3.org/2000/svg">
  <defs
     id="defs6" />
  <sodipodi:namedview
     id="namedview4"
     pagecolor="#ffffff"
     bordercolor="#000000"
     borderopacity="0.25"
     inkscape:showpageshadow="2"
     inkscape:pageopacity="0.0"
     inkscape:pagecheckerboard="0"
     inkscape:deskcolor="#d1d1d1" />
  <g
     id="g8"
     inkscape:groupmode="layer"
     inkscape:label="ink_ext_XXXXXX"
     transform="matrix(1.3333333,0,0,-1.3333333,0,2666.6667)">
    <g
       id="g10"
       transform="scale(0.1)">
      <path
         d="M 10058.5,10442.2 H 14182 c 0,599.5 -126.4,1169.4 -353.6,1684.9 l -2583.4,265.3 h 2455 c -701,1327.1 -2094.7,2231.8 -3700,2231.8 -2309.65,0 -4181.98,-1872.4 -4181.98,-4182 0,-349 43,-687.9 123.56,-1012 H 8592.31 L 6016.7,9165.7 C 6556.32,7480.4 8135.55,6260.2 10000,6260.2 c 2167.4,0 3949.7,1648.9 4161,3760.7 l -4102.5,421.3"
         style="fill:#1a4315;fill-opacity:1;fill-rule:nonzero;stroke:none"
         id="path12" />
      <path
         d="m 10000,11195.6 c -1731.16,0 -3260.72,415.9 -4182.11,1051.6 327.33,-970.8 2075.09,-1711.9 4182.11,-1711.9 2107,0 3854.8,741.1 4182.1,1711.9 -921.4,-635.7 -2450.9,-1051.6 -4182.1,-1051.6"
         style="fill:#af0e02;fill-opacity:1;fill-rule:nonzero;stroke:none"
         id="path14" />
      <path
         d="M 13425.1,10298.1 H 6574.89 l -342.74,474.3 h 7535.75 l -342.8,-474.3"
         style="fill:#af0e02;fill-opacity:1;fill-rule:nonzero;stroke:none"
         id="path16" />
      <path
         d="M 12449.9,9533.4 H 7550.08 l -228.49,337.1 h 5356.81 l -228.5,-337.1"
         style="fill:#af0e02;fill-opacity:1;fill-rule:nonzero;stroke:none"
         id="path18" />
      <path
         d="m 7915.24,6454.3 h 466.16 v 4081 h -466.16 v -4081"
         style="fill:#af0e02;fill-opacity:1;fill-rule:nonzero;stroke:none"
         id="path20" />
      <path
         d="m 11618.6,6454.3 h 466.2 v 4081 h -466.2 v -4081"
         style="fill:#af0e02;fill-opacity:1;fill-rule:nonzero;stroke:none"
         id="path22" />
      <path
         d="m 10244.5,9640.4 h -489.03 v 1037.4 h 489.03 V 9640.4"
         style="fill:#af0e02;fill-opacity:1;fill-rule:nonzero;stroke:none"
         id="path24" />
      <path
         d="m 10000,6226.1 c 2045.6,0 3927.3,-317.8 5417.5,-850.3 -1168.2,844.1 -3158.5,1399.9 -5417.5,1399.9 -2258.99,0 -4249.29,-555.8 -5417.49,-1399.9 1490.25,532.5 3371.89,850.3 5417.49,850.3"
         style="fill:#af0e02;fill-opacity:1;fill-rule:nonzero;stroke:none"
         id="path26" />
      <path
         d="M 8529.35,6304.3 H 7767.28 V 7388 h 762.07 V 6304.3"
         style="fill:#af0e02;fill-opacity:1;fill-rule:nonzero;stroke:none"
         id="path28" />
      <path
         d="m 12232.7,6418.5 h -762 V 7388 h 762 v -969.5"
         style="fill:#af0e02;fill-opacity:1;fill-rule:nonzero;stroke:none"
         id="path30" />
    </g>
  </g>
</svg>
